<svg width="328" height="328" viewBox="0 0 328 328" fill="none" xmlns="http://www.w3.org/2000/svg">
<g opacity="0.2" filter="url(#filter0_d_11057_1859)">
<path fill-rule="evenodd" clip-rule="evenodd" d="M323.996 159.628C323.996 163.36 323.868 167.061 323.616 170.729V238.875V239.254V240.375V240.754V318.5V320H322.116H244.466H244.087H242.966H242.587H164.938H164.558H163.438H163.058H85.4083H85.0287H83.9083H83.5287H5.87947H4.37947V318.5V240.754V240.375V239.254V238.875V170.709C4.12787 167.048 4 163.353 4 159.628C4 155.904 4.12787 152.209 4.37947 148.547V81.5036V81.125L4.37898 79.625V1.87859V0.37859H5.87898H83.5282H85.0282L85.4084 0.379058H152.885C156.557 0.127732 160.263 0 163.998 0C167.734 0 171.44 0.127732 175.111 0.379058H242.587H242.967H244.087H244.467H322.116H323.616V1.87906V79.6255V81.1255L323.616 81.5036V148.528C323.868 152.196 323.996 155.897 323.996 159.628ZM322.116 81.5036V135.076C319.145 115.875 312.744 97.8031 303.557 81.5036H322.116ZM322.116 148.581C320.436 124.305 313.265 101.537 301.833 81.5036H244.466V159.25H322.116V148.581ZM322.116 79.6255H302.482C288.526 55.6314 268.485 35.598 244.467 21.6274V1.87906H322.116V79.6255ZM300.744 79.6255C287.087 56.441 267.675 37.0366 244.467 23.3656V79.6255H300.744ZM242.587 1.87906V20.551C226.18 11.3031 207.974 4.86144 188.624 1.87906H242.587ZM242.587 22.2756C222.435 10.7747 199.51 3.56062 175.059 1.87906H164.937V79.6255H242.587V22.2756ZM85.4084 1.87906H139.373C120.022 4.86152 101.815 11.3035 85.4084 20.5517V1.87906ZM152.937 1.87906C128.486 3.56066 105.56 10.775 85.4084 22.2764V79.6255H163.058V1.87906H152.937ZM83.5282 1.87859V21.6284C59.5106 35.5988 39.4703 55.6317 25.5147 79.625H5.87898V1.87859H83.5282ZM83.5282 23.3666C60.3208 37.0375 40.9098 56.4413 27.2531 79.625H83.5282V23.3666ZM5.87947 81.5036H24.439C15.2512 97.8055 8.84988 115.88 5.87947 135.085V81.5036ZM5.87947 161.129V170.657C7.58763 195.394 14.9986 218.566 26.8102 238.875H83.5287V161.129H5.87947ZM5.87947 238.875V184.172C8.91819 203.818 15.5474 222.282 25.0773 238.875H5.87947ZM5.87947 240.754H26.1733C40.0976 264.25 59.8862 283.876 83.5287 297.629V318.5H5.87947V240.754ZM85.4083 318.5V298.705C104.321 309.366 125.626 316.298 148.319 318.5H85.4083ZM85.4083 296.98C108.318 310.056 134.812 317.59 163.058 317.754V240.754H85.4083V296.98ZM242.587 318.5H179.678C202.37 316.298 223.674 309.366 242.587 298.706V318.5ZM164.938 317.754C193.183 317.591 219.678 310.056 242.587 296.981V240.754H164.938V317.754ZM244.466 318.5V297.629C268.109 283.877 287.899 264.25 301.823 240.754H322.116V318.5H244.466ZM244.466 295.891C267.299 282.441 286.457 263.442 300.076 240.754H244.466V295.891ZM244.466 238.875H301.186C312.995 218.572 320.405 195.406 322.116 170.676V161.129H244.466V238.875ZM322.116 184.18C319.076 203.824 312.448 222.284 302.919 238.875H322.116V184.18ZM27.9202 240.754C41.5387 263.442 60.6963 282.441 83.5287 295.89V240.754H27.9202ZM26.1638 81.5036C14.7283 101.542 7.55626 124.317 5.87947 148.6V159.25H83.5287V81.5036H26.1638ZM85.4083 81.5036H163.058V86.6228H129.027H123.387H103.081V159.25H85.4083V81.5036ZM103.081 161.129H85.4083V238.875H163.058V161.129H129.027V233.188H103.081V161.129ZM129.027 159.25H163.058V112.554H129.027V159.25ZM164.938 86.6228H202.353H207.994H228.3V159.25H242.587V81.5036H164.938V86.6228ZM228.3 161.129H242.587V238.875H164.938V161.129H202.353V233.188H228.3V161.129ZM202.353 159.25V112.554H164.938V159.25H202.353Z" fill="white"/>
</g>
<defs>
<filter id="filter0_d_11057_1859" x="0" y="0" width="327.996" height="328" filterUnits="userSpaceOnUse" color-interpolation-filters="sRGB">
<feFlood flood-opacity="0" result="BackgroundImageFix"/>
<feColorMatrix in="SourceAlpha" type="matrix" values="0 0 0 0 0 0 0 0 0 0 0 0 0 0 0 0 0 0 127 0" result="hardAlpha"/>
<feOffset dy="4"/>
<feGaussianBlur stdDeviation="2"/>
<feComposite in2="hardAlpha" operator="out"/>
<feColorMatrix type="matrix" values="0 0 0 0 0 0 0 0 0 0 0 0 0 0 0 0 0 0 0.25 0"/>
<feBlend mode="normal" in2="BackgroundImageFix" result="effect1_dropShadow_11057_1859"/>
<feBlend mode="normal" in="SourceGraphic" in2="effect1_dropShadow_11057_1859" result="shape"/>
</filter>
</defs>
</svg>
